:FULLY-SPECIFIED
:DEGREES
3673
root 2.04171 15.578 -2.84551 5815.2 -95.228 -5813.77
lowerback 4.81179 0.778151 -8.39116
upperback -1.69496 0.481228 0.185368
thorax -4.55957 0.477701 4.86775
lowerneck -16.1519 0.973992 1.71986
upperneck 21.2004 1.43848 -3.06323
head 9.38733 0.384854 -1.17409
rclavicle 5.56597e-015 2.46493e-014
rhumerus -39.2397 -18.7041 -76.3578
rradius 14.3385
rwrist 19.3525
rhand -27.8218 -18.4985
rfingers 7.12502
rthumb -1.21377 -48.4748
lclavicle 5.56597e-015 2.46493e-014
lhumerus -19.6703 -9.91261 92.4903
lradius 36.1236
lwrist 15.4012
lhand -31.967 16.5613
lfingers 7.12502
lthumb -5.21686 46.477
rfemur -30.7483 -1.3385 18.0098
rtibia 53.5726
rfoot -17.8498 -24.0751
rtoes -10.0917
lfemur -3.58577 -5.67776 -31.3563
ltibia 21.3569
lfoot -14.9209 7.35112
ltoes -7.22855
3674
root 2.05571 15.587 -2.84908 5816.36 -95.2582 -5814.71
lowerback 4.68855 0.782587 -8.51203
upperback -1.75748 0.486353 0.163456
thorax -4.55813 0.484888 4.91262
lowerneck -16.1865 0.886305 1.59758
upperneck 21.157 1.32848 -2.97491
head 9.37412 0.334611 -1.13664
rclavicle -5.1684e-015 -5.56597e-015
rhumerus -38.5446 -17.9348 -77.294
rradius 14.7273
rwrist 17.958
rhand -27.7402 -18.7561
rfingers 7.12502
rthumb -1.13495 -48.7329
lclavicle -5.1684e-015 -5.56597e-015
lhumerus -19.6441 -10.1119 92.457
lradius 36.1
lwrist 15.2302
lhand -32 16.4388
lfingers 7.12502
lthumb -5.24872 46.3538
rfemur -31.1493 -0.810281 17.9802
rtibia 51.1104
rfoot -18.2525 -23.9706
rtoes -9.22378
lfemur -2.8514 -5.71626 -31.483
ltibia 20.641
lfoot -14.9765 7.37884
ltoes -7.47235
3675
root 2.07142 15.5925 -2.85514 5817.34 -95.2796 -5815.46
lowerback 4.588 0.789769 -8.64621
upperback -1.82489 0.492775 0.156589
thorax -4.57544 0.494395 4.98064
lowerneck -16.1974 0.852368 1.54968
upperneck 21.116 1.28179 -2.92071
head 9.35993 0.316048 -1.11541
rclavicle -1.66979e-014 1.80894e-014
rhumerus -37.9593 -17.4856 -77.8925
rradius 14.7971
rwrist 18.0686
rhand -28.1361 -18.3074
rfingers 7.12502
rthumb -1.51733 -48.2818
lclavicle -1.66979e-014 1.80894e-014
lhumerus -19.6995 -10.2038 92.4397
lradius 36.1197
lwrist 15.0906
lhand -31.9902 16.3914
lfingers 7.12502
lthumb -5.23926 46.3066
rfemur -31.5198 -0.463777 18.0433
rtibia 48.5491
rfoot -18.0244 -23.8854
rtoes -9.79858
lfemur -2.09057 -5.64164 -31.5573
ltibia 19.8348
lfoot -14.9233 7.25477
ltoes -7.77682
3676
root 2.08502 15.5971 -2.86036 5818.25 -95.3523 -5816.16
lowerback 4.48227 0.800267 -8.79496
upperback -1.87963 0.503256 0.136177
thorax -4.57726 0.505027 5.0423
lowerneck -16.2476 0.868047 1.6134
upperneck 21.0961 1.29582 -2.95493
head 9.3633 0.324388 -1.13584
rclavicle -1.37161e-014 4.17448e-014
rhumerus -37.2678 -16.9075 -78.6442
rradius 15.042
rwrist 17.7112
rhand -28.3112 -18.185
rfingers 7.12502
rthumb -1.68647 -48.158
lclavicle -1.37161e-014 4.17448e-014
lhumerus -19.7523 -10.3657 92.4356
lradius 36.0493
lwrist 14.9692
lhand -32.1471 16.4175
lfingers 7.12502
lthumb -5.39073 46.3289
rfemur -31.8027 0.0068141 17.9508
rtibia 45.9139
rfoot -17.9266 -23.3736
rtoes -9.90308
lfemur -1.21089 -5.59615 -31.6791
ltibia 18.8553
lfoot -14.7714 7.13598
ltoes -8.11056
3677
root 2.10138 15.6073 -2.86607 5819.79 -95.4045 -5817.46
lowerback 4.38554 0.79696 -8.92409
upperback -1.94757 0.493678 0.089428
thorax -4.59448 0.505657 5.06673
lowerneck -16.2682 0.849855 1.65909
upperneck 21.0437 1.26861 -2.9949
head 9.34865 0.311955 -1.1602
rclavicle 9.93923e-016 3.37934e-015
rhumerus -36.5131 -16.1314 -79.5492
rradius 15.4205
rwrist 16.6054
rhand -28.3567 -18.2265
rfingers 7.12502
rthumb -1.73043 -48.1992
lclavicle 9.93923e-016 3.37934e-015
lhumerus -19.8743 -10.5237 92.4171
lradius 36.0234
lwrist 15.0015
lhand -32.0986 16.4225
lfingers 7.12502
lthumb -5.34396 46.3351
rfemur -31.9942 0.509335 17.8086
rtibia 43.2026
rfoot -17.8262 -22.6599
rtoes -10.1801
lfemur -0.313738 -5.57458 -31.7977
ltibia 17.752
lfoot -14.5103 7.08162
ltoes -8.88464
3678
root 2.11541 15.6117 -2.87239 5820.82 -95.4811 -5818.23
lowerback 4.23388 0.800227 -9.06427
upperback -2.01298 0.499157 0.0615257
thorax -4.58056 0.513053 5.11622
lowerneck -16.318 0.825513 1.66913
upperneck 21.0052 1.23665 -3.0106
head 9.34379 0.296881 -1.17095
rclavicle -4.77083e-015 -5.1684e-015
rhumerus -35.7561 -15.8129 -80.1258
rradius 15.6965
rwrist 16.2082
rhand -28.3313 -18.2482
rfingers 7.12502
rthumb -1.70584 -48.2211
lclavicle -4.77083e-015 -5.1684e-015
lhumerus -20.0285 -10.5733 92.4322
lradius 35.9381
lwrist 14.8919
lhand -32.1888 16.3278
lfingers 7.12502
lthumb -5.43099 46.2382
rfemur -32.1605 1.08745 17.6443
rtibia 40.4417
rfoot -17.6435 -21.7359
rtoes -10.7108
lfemur 0.606042 -5.43354 -31.8907
ltibia 16.574
lfoot -14.2055 6.78962
ltoes -9.38726
3679
root 2.12427 15.625 -2.87884 5822.03 -95.5749 -5819.21
lowerback 4.06297 0.80955 -9.18833
upperback -2.05737 0.516034 0.0101925
thorax -4.5347 0.522997 5.13113
lowerneck -16.3481 0.787746 1.66498
upperneck 20.9438 1.18558 -3.00819
head 9.32654 0.27426 -1.17527
rclavicle -9.93923e-016 7.95139e-015
rhumerus -34.9688 -14.9408 -81.0497
rradius 16.1508
rwrist 14.9343
rhand -28.403 -18.2183
rfingers 7.12502
rthumb -1.77511 -48.1907
lclavicle -9.93923e-016 7.95139e-015
lhumerus -20.2152 -10.6091 92.4477
lradius 35.8461
lwrist 14.9343
lhand -32.1985 16.4865
lfingers 7.12502
lthumb -5.44037 46.3966
rfemur -32.1725 1.79313 17.3572
rtibia 37.6378
rfoot -17.2897 -20.8048
rtoes -12.5706
lfemur 1.66675 -5.38737 -32.0272
ltibia 15.271
lfoot -13.9029 6.64713
ltoes -9.83264
3680
root 2.13797 15.6346 -2.88634 5823.14 -95.5843 -5820.06
lowerback 3.90231 0.804246 -9.20407
upperback -2.12125 0.518308 -0.0382812
thorax -4.51094 0.524208 5.08918
lowerneck -16.2936 0.76031 1.65871
upperneck 20.8111 1.14237 -2.97546
head 9.26885 0.259876 -1.16706
rclavicle 2.38542e-015 -1.09332e-015
rhumerus -34.2069 -14.1498 -81.95
rradius 16.6478
rwrist 13.9442
rhand -28.6324 -18.2257
rfingers 7.12502
rthumb -1.99666 -48.1961
lclavicle 2.38542e-015 -1.09332e-015
lhumerus -20.4681 -10.7022 92.4685
lradius 35.7826
lwrist 15.0437
lhand -32.1709 16.4752
lfingers 7.12502
lthumb -5.41372 46.3861
rfemur -32.1907 2.62368 17.0789
rtibia 34.8328
rfoot -17.322 -19.8704
rtoes -13.3988
lfemur 2.66651 -5.22717 -32.0304
ltibia 13.9315
lfoot -13.4042 6.29958
ltoes -10.5171
3681
root 2.14872 15.6434 -2.89409 5824.11 -95.6092 -5820.77
lowerback 3.72311 0.783474 -9.25959
upperback -2.19436 0.500354 -0.0615079
thorax -4.48426 0.517229 5.09796
lowerneck -16.2716 0.766476 1.71544
upperneck 20.7607 1.15212 -3.04366
head 9.24825 0.262178 -1.19829
rclavicle 7.95139e-016 -6.75868e-015
rhumerus -33.4491 -13.3774 -82.7587
rradius 17.1948
rwrist 12.8448
rhand -28.6618 -18.3079
rfingers 7.12502
rthumb -2.02512 -48.278
lclavicle 7.95139e-016 -6.75868e-015
lhumerus -20.7587 -10.6102 92.5014
lradius 35.5845
lwrist 15.1021
lhand -32.148 16.6047
lfingers 7.12502
lthumb -5.39167 46.5161
rfemur -32.1679 3.59987 16.7363
rtibia 32.1163
rfoot -17.4791 -19.4365
rtoes -14.6218
lfemur 3.81155 -5.11516 -32.0441
ltibia 12.3592
lfoot -12.8623 5.95056
ltoes -11.1255
3682
root 2.15677 15.6534 -2.90412 5825.74 -95.6377 -5822.14
lowerback 3.51086 0.764458 -9.32238
upperback -2.24544 0.488193 -0.106581
thorax -4.41623 0.510227 5.08755
lowerneck -16.3304 0.739481 1.74889
upperneck 20.7935 1.12154 -3.11069
head 9.27028 0.242446 -1.23121
rclavicle -1.88845e-015 -5.06901e-015
rhumerus -32.6794 -12.4195 -83.6269
rradius 17.7863
rwrist 11.6019
rhand -28.7188 -18.2921
rfingers 7.12502
rthumb -2.08011 -48.2617
lclavicle -1.88845e-015 -5.06901e-015
lhumerus -21.0427 -10.5916 92.5432
lradius 35.3655
lwrist 15.14
lhand -32.067 16.7648
lfingers 7.12502
lthumb -5.31338 46.6782
rfemur -32.1275 4.75542 16.2202
rtibia 29.5891
rfoot -17.6071 -19.3475
rtoes -15.0921
lfemur 5.0006 -5.02425 -32.0729
ltibia 10.7112
lfoot -12.2444 5.60122
ltoes -11.6083
3683
root 2.16342 15.6647 -2.91426 5827.5 -95.6906 -5823.66
lowerback 3.30589 0.742364 -9.43585
upperback -2.29103 0.470369 -0.125812
thorax -4.34692 0.502217 5.13329
lowerneck -16.394 0.722215 1.72303
upperneck 20.7928 1.11219 -3.14166
head 9.28158 0.232526 -1.23876
rclavicle -8.24956e-015 -1.89839e-014
rhumerus -31.8998 -11.5195 -84.3792
rradius 18.3971
rwrist 10.461
rhand -28.9237 -18.2414
rfingers 7.12502
rthumb -2.27799 -48.209
lclavicle -8.24956e-015 -1.89839e-014
lhumerus -21.3676 -10.5023 92.6483
lradius 35.0995
lwrist 15.2463
lhand -32.1551 16.5129
lfingers 7.12502
lthumb -5.39848 46.4241
rfemur -32.176 6.21727 15.5291
rtibia 27.3758
rfoot -17.9838 -19.6605
rtoes -15.1749
lfemur 6.34279 -4.8968 -32.1235
ltibia 8.81929
lfoot -11.4934 5.17256
ltoes -12.2565
